<svg xmlns="http://www.w3.org/2000/svg" xmlns:xlink="http://www.w3.org/1999/xlink" width="500" zoomAndPan="magnify" viewBox="90 -40 200 300" height="500" preserveAspectRatio="xMidYMid meet" version="1.0"><defs><filter x="0%" y="0%" width="100%" height="100%" id="545c3ab318"><feColorMatrix values="0 0 0 0 1 0 0 0 0 1 0 0 0 0 1 0 0 0 1 0" color-interpolation-filters="sRGB"/></filter><clipPath id="f5d85b9fce"><path d="M 120.628906 121.816406 L 196.269531 121.816406 L 196.269531 219.121094 L 120.628906 219.121094 Z M 120.628906 121.816406 " clip-rule="nonzero"/></clipPath><clipPath id="54390711d9"><path d="M 188.726562 219.121094 L 128.175781 219.121094 C 124.015625 219.121094 120.628906 215.734375 120.628906 211.578125 L 120.628906 129.359375 C 120.628906 125.203125 124.015625 121.816406 128.175781 121.816406 L 188.726562 121.816406 C 192.882812 121.816406 196.269531 125.203125 196.269531 129.359375 L 196.269531 211.578125 C 196.269531 215.734375 192.882812 219.121094 188.726562 219.121094 Z M 188.726562 219.121094 " clip-rule="nonzero"/></clipPath><mask id="e8f4922fe0"><g filter="url(#545c3ab318)"><rect x="-37.5" width="450" fill="#000000" y="-37.499999" height="449.999989" fill-opacity="0.95"/></g></mask><clipPath id="37261bb285"><path d="M 0.730469 0.0664062 L 76.371094 0.0664062 L 76.371094 97.371094 L 0.730469 97.371094 Z M 0.730469 0.0664062 " clip-rule="nonzero"/></clipPath><clipPath id="0fa6385daa"><path d="M 68.824219 97.371094 L 8.273438 97.371094 C 4.117188 97.371094 0.730469 93.980469 0.730469 89.824219 L 0.730469 7.609375 C 0.730469 3.453125 4.117188 0.0664062 8.273438 0.0664062 L 68.824219 0.0664062 C 72.984375 0.0664062 76.371094 3.453125 76.371094 7.609375 L 76.371094 89.824219 C 76.371094 93.980469 72.984375 97.371094 68.824219 97.371094 Z M 68.824219 97.371094 " clip-rule="nonzero"/></clipPath><clipPath id="93112a4c50"><rect x="0" width="77" y="0" height="98"/></clipPath><clipPath id="83b22b0749"><path d="M 99.195312 137.171875 L 120.625 137.171875 L 120.625 178.59375 L 99.195312 178.59375 Z M 99.195312 137.171875 " clip-rule="nonzero"/></clipPath><clipPath id="d22f011e0c"><path d="M 100.382812 150.980469 C 99.667969 153.101562 99.195312 155.515625 99.195312 157.882812 C 99.195312 160.253906 99.597656 162.53125 100.3125 164.632812 C 100.335938 164.675781 100.335938 164.71875 100.359375 164.765625 C 103.21875 172.652344 110.769531 178.460938 119.507812 178.574219 L 120.625 178.574219 L 120.625 137.171875 L 119.507812 137.171875 C 110.726562 137.285156 103.175781 143.003906 100.382812 150.980469 Z M 100.382812 150.980469 " clip-rule="nonzero"/></clipPath><clipPath id="d1a5f72e0a"><path d="M 106.632812 144.359375 L 120.625 144.359375 L 120.625 171.410156 L 106.632812 171.410156 Z M 106.632812 144.359375 " clip-rule="nonzero"/></clipPath><clipPath id="68ee588a5a"><path d="M 107.40625 153.375 C 106.9375 154.761719 106.632812 156.335938 106.632812 157.882812 C 106.632812 159.429688 106.894531 160.917969 107.359375 162.292969 C 107.375 162.320312 107.375 162.347656 107.390625 162.378906 C 109.257812 167.53125 114.191406 171.324219 119.894531 171.398438 L 120.625 171.398438 L 120.625 144.359375 L 119.894531 144.359375 C 114.160156 144.429688 109.230469 148.167969 107.40625 153.375 Z M 107.40625 153.375 " clip-rule="nonzero"/></clipPath><mask id="1f2e58e996"><g filter="url(#545c3ab318)"><rect x="-37.5" width="450" fill="#000000" y="-37.499999" height="449.999989" fill-opacity="0.95"/></g></mask><clipPath id="f77dfb27c4"><path d="M 0.367188 0.914062 L 21.792969 0.914062 L 21.792969 42.335938 L 0.367188 42.335938 Z M 0.367188 0.914062 " clip-rule="nonzero"/></clipPath><clipPath id="2ab9f23aee"><path d="M 20.609375 28.53125 C 21.324219 26.40625 21.792969 23.996094 21.792969 21.625 C 21.792969 19.257812 21.390625 16.980469 20.675781 14.878906 C 20.65625 14.835938 20.65625 14.789062 20.632812 14.746094 C 17.773438 6.859375 10.222656 1.050781 1.484375 0.9375 L 0.367188 0.9375 L 0.367188 42.335938 L 1.484375 42.335938 C 10.265625 42.226562 17.816406 36.507812 20.609375 28.53125 Z M 20.609375 28.53125 " clip-rule="nonzero"/></clipPath><clipPath id="812e17f27a"><rect x="0" width="22" y="0" height="43"/></clipPath><clipPath id="72f84dc964"><path d="M 254.367188 160.101562 L 268.363281 160.101562 L 268.363281 187.15625 L 254.367188 187.15625 Z M 254.367188 160.101562 " clip-rule="nonzero"/></clipPath><clipPath id="f4b4bf0581"><path d="M 267.589844 178.136719 C 268.054688 176.75 268.363281 175.175781 268.363281 173.628906 C 268.363281 172.082031 268.097656 170.59375 267.632812 169.222656 C 267.617188 169.191406 267.617188 169.164062 267.601562 169.132812 C 265.734375 163.984375 260.804688 160.1875 255.097656 160.117188 L 254.367188 160.117188 L 254.367188 187.15625 L 255.097656 187.15625 C 260.832031 187.082031 265.765625 183.347656 267.589844 178.136719 Z M 267.589844 178.136719 " clip-rule="nonzero"/></clipPath></defs><g clip-path="url(#f5d85b9fce)"><g clip-path="url(#54390711d9)"><path fill="#ffffff" d="M 120.628906 121.816406 L 196.269531 121.816406 L 196.269531 219.121094 L 120.628906 219.121094 Z M 120.628906 121.816406 " fill-opacity="1" fill-rule="nonzero"/></g></g><g mask="url(#e8f4922fe0)"><g transform="matrix(1, 0, 0, 1, 178, 138)"><g clip-path="url(#93112a4c50)"><g clip-path="url(#37261bb285)"><g clip-path="url(#0fa6385daa)"><path fill="#7e30e1" d="M 0.730469 0.0664062 L 76.371094 0.0664062 L 76.371094 97.371094 L 0.730469 97.371094 Z M 0.730469 0.0664062 " fill-opacity="1" fill-rule="nonzero"/></g></g></g></g></g><g clip-path="url(#83b22b0749)"><g clip-path="url(#d22f011e0c)"><path fill="#ffffff" d="M 120.625 137.171875 L 120.625 178.59375 L 99.195312 178.59375 L 99.195312 137.171875 Z M 120.625 137.171875 " fill-opacity="1" fill-rule="nonzero"/></g></g><g clip-path="url(#d1a5f72e0a)"><g clip-path="url(#68ee588a5a)"><path fill="#49108b" d="M 120.625 144.359375 L 120.625 171.410156 L 106.632812 171.410156 L 106.632812 144.359375 Z M 120.625 144.359375 " fill-opacity="1" fill-rule="nonzero"/></g></g><g mask="url(#1f2e58e996)"><g transform="matrix(1, 0, 0, 1, 254, 152)"><g clip-path="url(#812e17f27a)"><g clip-path="url(#f77dfb27c4)"><g clip-path="url(#2ab9f23aee)"><path fill="#7e30e1" d="M 0.367188 42.335938 L 0.367188 0.914062 L 21.792969 0.914062 L 21.792969 42.335938 Z M 0.367188 42.335938 " fill-opacity="1" fill-rule="nonzero"/></g></g></g></g></g><g clip-path="url(#72f84dc964)"><g clip-path="url(#f4b4bf0581)"><path fill="#49108b" d="M 254.367188 187.15625 L 254.367188 160.101562 L 268.363281 160.101562 L 268.363281 187.15625 Z M 254.367188 187.15625 " fill-opacity="1" fill-rule="nonzero"/></g></g></svg>