<svg xmlns="http://www.w3.org/2000/svg" xmlns:xlink="http://www.w3.org/1999/xlink" width="500" zoomAndPan="magnify" viewBox="90 50 200 300" height="500" preserveAspectRatio="xMidYMid meet" version="1.0"><defs><filter x="0%" y="0%" width="100%" height="100%" id="b5e04ec5e9"><feColorMatrix values="0 0 0 0 1 0 0 0 0 1 0 0 0 0 1 0 0 0 1 0" color-interpolation-filters="sRGB"/></filter><g/><clipPath id="a8a53ec2af"><path d="M 120.628906 121.816406 L 196.269531 121.816406 L 196.269531 219.121094 L 120.628906 219.121094 Z M 120.628906 121.816406 " clip-rule="nonzero"/></clipPath><clipPath id="4c3b0e0245"><path d="M 188.726562 219.121094 L 128.175781 219.121094 C 124.015625 219.121094 120.628906 215.734375 120.628906 211.578125 L 120.628906 129.359375 C 120.628906 125.203125 124.015625 121.816406 128.175781 121.816406 L 188.726562 121.816406 C 192.882812 121.816406 196.269531 125.203125 196.269531 129.359375 L 196.269531 211.578125 C 196.269531 215.734375 192.882812 219.121094 188.726562 219.121094 Z M 188.726562 219.121094 " clip-rule="nonzero"/></clipPath><mask id="ecc4d31780"><g filter="url(#b5e04ec5e9)"><rect x="-37.5" width="450" fill="#000000" y="-37.499999" height="449.999989" fill-opacity="0.95"/></g></mask><clipPath id="9a98d8d7ed"><path d="M 0.730469 0.0664062 L 76.371094 0.0664062 L 76.371094 97.371094 L 0.730469 97.371094 Z M 0.730469 0.0664062 " clip-rule="nonzero"/></clipPath><clipPath id="86b03ad646"><path d="M 68.824219 97.371094 L 8.273438 97.371094 C 4.117188 97.371094 0.730469 93.980469 0.730469 89.824219 L 0.730469 7.609375 C 0.730469 3.453125 4.117188 0.0664062 8.273438 0.0664062 L 68.824219 0.0664062 C 72.984375 0.0664062 76.371094 3.453125 76.371094 7.609375 L 76.371094 89.824219 C 76.371094 93.980469 72.984375 97.371094 68.824219 97.371094 Z M 68.824219 97.371094 " clip-rule="nonzero"/></clipPath><clipPath id="64733424a2"><rect x="0" width="77" y="0" height="98"/></clipPath><clipPath id="6dd21fc66c"><path d="M 99.195312 137.171875 L 120.625 137.171875 L 120.625 178.59375 L 99.195312 178.59375 Z M 99.195312 137.171875 " clip-rule="nonzero"/></clipPath><clipPath id="bf3433a75f"><path d="M 100.382812 150.980469 C 99.667969 153.101562 99.195312 155.515625 99.195312 157.882812 C 99.195312 160.253906 99.597656 162.53125 100.3125 164.632812 C 100.335938 164.675781 100.335938 164.71875 100.359375 164.765625 C 103.21875 172.652344 110.769531 178.460938 119.507812 178.574219 L 120.625 178.574219 L 120.625 137.171875 L 119.507812 137.171875 C 110.726562 137.285156 103.175781 143.003906 100.382812 150.980469 Z M 100.382812 150.980469 " clip-rule="nonzero"/></clipPath><clipPath id="3268a25899"><path d="M 106.632812 144.359375 L 120.625 144.359375 L 120.625 171.410156 L 106.632812 171.410156 Z M 106.632812 144.359375 " clip-rule="nonzero"/></clipPath><clipPath id="333bd7f5da"><path d="M 107.40625 153.375 C 106.9375 154.761719 106.632812 156.335938 106.632812 157.882812 C 106.632812 159.429688 106.894531 160.917969 107.359375 162.292969 C 107.375 162.320312 107.375 162.347656 107.390625 162.378906 C 109.257812 167.53125 114.191406 171.324219 119.894531 171.398438 L 120.625 171.398438 L 120.625 144.359375 L 119.894531 144.359375 C 114.160156 144.429688 109.230469 148.167969 107.40625 153.375 Z M 107.40625 153.375 " clip-rule="nonzero"/></clipPath><mask id="f0138413fb"><g filter="url(#b5e04ec5e9)"><rect x="-37.5" width="450" fill="#000000" y="-37.499999" height="449.999989" fill-opacity="0.95"/></g></mask><clipPath id="40db167368"><path d="M 0.367188 0.914062 L 21.792969 0.914062 L 21.792969 42.335938 L 0.367188 42.335938 Z M 0.367188 0.914062 " clip-rule="nonzero"/></clipPath><clipPath id="48d8f80095"><path d="M 20.609375 28.53125 C 21.324219 26.40625 21.792969 23.996094 21.792969 21.625 C 21.792969 19.257812 21.390625 16.980469 20.675781 14.878906 C 20.65625 14.835938 20.65625 14.789062 20.632812 14.746094 C 17.773438 6.859375 10.222656 1.050781 1.484375 0.9375 L 0.367188 0.9375 L 0.367188 42.335938 L 1.484375 42.335938 C 10.265625 42.226562 17.816406 36.507812 20.609375 28.53125 Z M 20.609375 28.53125 " clip-rule="nonzero"/></clipPath><clipPath id="444b2ae496"><rect x="0" width="22" y="0" height="43"/></clipPath><clipPath id="69cc212506"><path d="M 254.367188 160.101562 L 268.363281 160.101562 L 268.363281 187.15625 L 254.367188 187.15625 Z M 254.367188 160.101562 " clip-rule="nonzero"/></clipPath><clipPath id="2f19aa40ea"><path d="M 267.589844 178.136719 C 268.054688 176.75 268.363281 175.175781 268.363281 173.628906 C 268.363281 172.082031 268.097656 170.59375 267.632812 169.222656 C 267.617188 169.191406 267.617188 169.164062 267.601562 169.132812 C 265.734375 163.984375 260.804688 160.1875 255.097656 160.117188 L 254.367188 160.117188 L 254.367188 187.15625 L 255.097656 187.15625 C 260.832031 187.082031 265.765625 183.347656 267.589844 178.136719 Z M 267.589844 178.136719 " clip-rule="nonzero"/></clipPath></defs><g clip-path="url(#a8a53ec2af)"><g clip-path="url(#4c3b0e0245)"><path fill="#ffffff" d="M 120.628906 121.816406 L 196.269531 121.816406 L 196.269531 219.121094 L 120.628906 219.121094 Z M 120.628906 121.816406 " fill-opacity="1" fill-rule="nonzero"/></g></g><g mask="url(#ecc4d31780)"><g transform="matrix(1, 0, 0, 1, 178, 138)"><g clip-path="url(#64733424a2)"><g clip-path="url(#9a98d8d7ed)"><g clip-path="url(#86b03ad646)"><path fill="#7e30e1" d="M 0.730469 0.0664062 L 76.371094 0.0664062 L 76.371094 97.371094 L 0.730469 97.371094 Z M 0.730469 0.0664062 " fill-opacity="1" fill-rule="nonzero"/></g></g></g></g></g><g clip-path="url(#6dd21fc66c)"><g clip-path="url(#bf3433a75f)"><path fill="#ffffff" d="M 120.625 137.171875 L 120.625 178.59375 L 99.195312 178.59375 L 99.195312 137.171875 Z M 120.625 137.171875 " fill-opacity="1" fill-rule="nonzero"/></g></g><g clip-path="url(#3268a25899)"><g clip-path="url(#333bd7f5da)"><path fill="#49108b" d="M 120.625 144.359375 L 120.625 171.410156 L 106.632812 171.410156 L 106.632812 144.359375 Z M 120.625 144.359375 " fill-opacity="1" fill-rule="nonzero"/></g></g><g mask="url(#f0138413fb)"><g transform="matrix(1, 0, 0, 1, 254, 152)"><g clip-path="url(#444b2ae496)"><g clip-path="url(#40db167368)"><g clip-path="url(#48d8f80095)"><path fill="#7e30e1" d="M 0.367188 42.335938 L 0.367188 0.914062 L 21.792969 0.914062 L 21.792969 42.335938 Z M 0.367188 42.335938 " fill-opacity="1" fill-rule="nonzero"/></g></g></g></g></g><g clip-path="url(#69cc212506)"><g clip-path="url(#2f19aa40ea)"><path fill="#49108b" d="M 254.367188 187.15625 L 254.367188 160.101562 L 268.363281 160.101562 L 268.363281 187.15625 Z M 254.367188 187.15625 " fill-opacity="1" fill-rule="nonzero"/></g></g><g fill="#ffffff" fill-opacity="1"><g transform="translate(158.754104, 263.354162)"><g><path d="M 3.953125 -14.625 C 5.066406 -14.625 5.890625 -14.289062 6.421875 -13.625 C 6.953125 -12.96875 7.21875 -12.085938 7.21875 -10.984375 L 7.21875 -9.6875 L 5.6875 -9.6875 L 5.6875 -11.0625 C 5.6875 -11.726562 5.550781 -12.242188 5.28125 -12.609375 C 5.007812 -12.972656 4.582031 -13.15625 4 -13.15625 C 3.414062 -13.15625 2.984375 -12.972656 2.703125 -12.609375 C 2.429688 -12.242188 2.296875 -11.726562 2.296875 -11.0625 L 2.296875 -3.40625 C 2.296875 -2.75 2.429688 -2.238281 2.703125 -1.875 C 2.984375 -1.507812 3.414062 -1.328125 4 -1.328125 C 4.582031 -1.328125 5.007812 -1.507812 5.28125 -1.875 C 5.550781 -2.238281 5.6875 -2.75 5.6875 -3.40625 L 5.6875 -5.296875 L 7.21875 -5.296875 L 7.21875 -3.5 C 7.21875 -2.394531 6.953125 -1.507812 6.421875 -0.84375 C 5.890625 -0.1875 5.066406 0.140625 3.953125 0.140625 C 2.847656 0.140625 2.03125 -0.1875 1.5 -0.84375 C 0.96875 -1.507812 0.703125 -2.394531 0.703125 -3.5 L 0.703125 -10.984375 C 0.703125 -11.535156 0.765625 -12.035156 0.890625 -12.484375 C 1.023438 -12.929688 1.226562 -13.3125 1.5 -13.625 C 1.769531 -13.945312 2.109375 -14.191406 2.515625 -14.359375 C 2.921875 -14.535156 3.398438 -14.625 3.953125 -14.625 Z M 3.953125 -14.625 "/></g></g></g><g fill="#ffffff" fill-opacity="1"><g transform="translate(166.613872, 263.354162)"><g><path d="M 2.359375 -3.40625 C 2.359375 -2.75 2.492188 -2.238281 2.765625 -1.875 C 3.035156 -1.507812 3.46875 -1.328125 4.0625 -1.328125 C 4.632812 -1.328125 5.054688 -1.507812 5.328125 -1.875 C 5.597656 -2.238281 5.734375 -2.75 5.734375 -3.40625 L 5.734375 -14.484375 L 7.234375 -14.484375 L 7.234375 -3.5 C 7.234375 -2.394531 6.972656 -1.503906 6.453125 -0.828125 C 5.929688 -0.160156 5.113281 0.171875 4 0.171875 C 2.894531 0.171875 2.078125 -0.160156 1.546875 -0.828125 C 1.023438 -1.503906 0.765625 -2.394531 0.765625 -3.5 L 0.765625 -14.484375 L 2.359375 -14.484375 Z M 2.359375 -3.40625 "/></g></g></g><g fill="#ffffff" fill-opacity="1"><g transform="translate(174.618419, 263.354162)"><g><path d="M 4 -14.484375 C 5.132812 -14.484375 5.957031 -14.164062 6.46875 -13.53125 C 6.976562 -12.90625 7.234375 -12.039062 7.234375 -10.9375 L 7.234375 -9.203125 C 7.234375 -8.046875 6.960938 -7.171875 6.421875 -6.578125 C 5.878906 -5.992188 5.03125 -5.703125 3.875 -5.703125 L 2.4375 -5.703125 L 2.4375 0 L 0.828125 0 L 0.828125 -14.484375 Z M 3.875 -7.15625 C 4.476562 -7.15625 4.921875 -7.300781 5.203125 -7.59375 C 5.492188 -7.894531 5.640625 -8.398438 5.640625 -9.109375 L 5.640625 -11.03125 C 5.640625 -11.6875 5.507812 -12.179688 5.25 -12.515625 C 5 -12.847656 4.582031 -13.015625 4 -13.015625 L 2.4375 -13.015625 L 2.4375 -7.15625 Z M 3.875 -7.15625 "/></g></g></g><g fill="#ffffff" fill-opacity="1"><g transform="translate(182.292025, 263.354162)"><g/></g></g><g fill="#ffffff" fill-opacity="1"><g transform="translate(185.497984, 263.354162)"><g><path d="M 2.921875 0 L 2.921875 -13.015625 L 0.25 -13.015625 L 0.25 -14.484375 L 7.171875 -14.484375 L 7.171875 -13.015625 L 4.515625 -13.015625 L 4.515625 0 Z M 2.921875 0 "/></g></g></g><g fill="#ffffff" fill-opacity="1"><g transform="translate(192.94407, 263.354162)"><g><path d="M 2.46875 -2.921875 L 1.90625 0 L 0.40625 0 L 3.1875 -14.484375 L 5.53125 -14.484375 L 8.296875 0 L 6.6875 0 L 6.125 -2.921875 Z M 2.671875 -4.296875 L 5.890625 -4.296875 L 4.265625 -12.65625 Z M 2.671875 -4.296875 "/></g></g></g><g fill="#ffffff" fill-opacity="1"><g transform="translate(201.672547, 263.354162)"><g><path d="M 0.828125 0 L 0.828125 -14.484375 L 2.4375 -14.484375 L 2.4375 -1.46875 L 6.578125 -1.46875 L 6.578125 0 Z M 0.828125 0 "/></g></g></g><g fill="#ffffff" fill-opacity="1"><g transform="translate(208.642914, 263.354162)"><g><path d="M 3.296875 -6.28125 L 2.4375 -4.859375 L 2.4375 0 L 0.828125 0 L 0.828125 -14.484375 L 2.4375 -14.484375 L 2.4375 -7.484375 L 6.28125 -14.484375 L 7.921875 -14.484375 L 4.265625 -7.875 L 8.046875 0 L 6.390625 0 Z M 3.296875 -6.28125 "/></g></g></g></svg>